# xmcd CD database file
#
# Track frame offsets:
#	150
#	12296
#	27825
#	47122
#	62469
#	78264
#	91825
#	106499
#	123913
#	140142
#	154491
#
# Disc length: 2221 seconds
#
# Revision: 0
# Processed by: cddbd v1.5.1PL2 Copyright (c) Steve Scherf et al.
# Submitted via: CDex 1.51
#
DISCID=8908ab0b
DTITLE=Josh Medlock - In Other Words
DYEAR=1998
DGENRE=Country
TTITLE0=Rockin' Up The Country
TTITLE1=Lonely At The Top
TTITLE2=In Other Words
TTITLE3=My Angel's Name
TTITLE4=Georgia Water
TTITLE5=She Wants To Be Wanted Again
TTITLE6=L-O-N-E-L-Y Me
TTITLE7=Ten More Miles
TTITLE8=Will Of The Wind
TTITLE9=Long Distance Love
TTITLE10=Wonderland Of Love
EXTD=YEAR: 1998
EXTT0=
EXTT1=
EXTT2=
EXTT3=
EXTT4=
EXTT5=
EXTT6=
EXTT7=
EXTT8=
EXTT9=
EXTT10=
PLAYORDER=
